<svg xmlns="http://www.w3.org/2000/svg" viewBox="0 0 985 1015">
  <path d="M714.34 0h7.77c6.26 1.09 12.45 3.37 17.41 7.45 8.22 6.51 13.29 16.94 13.02 27.46a34.58 34.58 0 0 1-14.57 28.07c-11.38 8.3-27.81 8.4-39.42.54-8.02-5.5-13.72-14.36-15.04-24.03a34.66 34.66 0 0 1 10.76-30.25c5.39-5.28 12.67-8.2 20.07-9.24z" style="fill:#e30535"/>
  <path d="M934.95 111.81c9.28.22 18.54-.83 27.83-.38l-.33 2.01c-7.61 1.65-15.46 1.77-22.98 3.83-2.56.39-5.19.46-7.62 1.41-4.49 1.67-9.35 1.93-13.8 3.69l-3.9-.82-1.99 3.74-3.56 1.05c-1.33-.53-2.67-1.05-4-1.53-.4 2.53 1.77 4.02 3.38 5.53-.38 2.62-3.11 3.5-5.08 4.69-4.93 2.3-10.62.85-15.57 3.04-9.91 1.61-19.51 4.63-29.31 6.76-3.72.7-7.26 2.21-11.04 2.6-5.48.55-10.54 3-16.02 3.48-2.16.27-4.13 1.24-6.15 1.95l-2.71-2.33-1.54 2.53c-2.94.99-5.01 3.31-7.23 5.32-2.97-1.65-6.2.35-9.35-.09-1.25 1.03-2.5 2.05-3.77 3.04l-1.99-1.24c-1.77.4-3.55.75-5.32 1.05-4.79 4.87-12.06 4.45-18.26 5.83l-1.53-2.83c-1.01 1.96-2.1 3.96-4.26 4.85l-1.86-2.7a174 174 0 0 0-2.99 2.06l-2.15.24c-3.05 2.38-6.96 2.94-10.33 4.66-3.46 1.78-7.51 1.07-11.16 2.12-6.8 2.11-13.85 3.19-20.82 4.53-1.12-.54-3.83-2.57-3.87.09l-.44 1.61a44.24 44.24 0 0 1-11.85 2.05c-1.62 1.92-3.97 2.51-6.37 2.71-.97.99-1.9 2.02-2.96 2.91-3.71.57-7.41 1.24-11.12 1.78 1.12-1.61 4.01-2.75 2.88-5.1.34-1.08.68-2.16.98-3.26l-4.2-.08c-1.15 2.15-2.89 3.65-5.38 3.94-1.33 1.47-2.97.48-4.45-.04-.85.69-1.69 1.39-2.52 2.09-3.92-1.59-8.36.06-12.15 1.46-3.07.89-4.65 3.85-7.1 5.64-2.2.47-3.18-1.92-4.47-3.2l-1.35-.12c-1.12 3.1-4.51 3.65-7.29 4.36l-.63-4.25c-4.02-.02-7.92 1.37-11.31 3.42l-.71 1.4-2.88 1.55c-.05-1.55-.06-3.09-.04-4.64a7.98 7.98 0 0 0 1.36-5.81l-3.32.32c-1.01 1.74-2.36 3.23-3.53 4.86-.62 1.52-.72 3.23-1.54 4.67a17.25 17.25 0 0 1-10.1 2.47l.51-3.53-1.51-.05c.15 1.41.31 2.83.42 4.25l2.22 1.39c-.37 2.54-.48 5.1-.55 7.67-1.72.29-3.45.54-5.17.78.24-1.04.5-2.07.77-3.1-.9-1.26-1.42-2.9-2.77-3.75-1.63 0-3.18.52-4.75.85.14-1.29.27-2.57.37-3.86l-3.52 1.29.73 3.45a86.6 86.6 0 0 1-4.64 3.19c-1.61.13-3.21.28-4.8.44a99.8 99.8 0 0 1-.3-1.83 5.32 5.32 0 0 1-4.12 3.24l.68 1.87c-.42 1.62-.8 3.24-1.16 4.87l-2.51-.18c.3-.83.61-1.65.93-2.48l-1.78-2.3c1.24-1.38 2.52-2.73 3.83-4.05-2.59-.56-1.45-3.25-1.64-5.09-2.52.78-3.46 2.77-2.76 5.21-1 1.34-2.02 2.67-3.05 3.98l2.34 2c-1.76 1.26-3.6 2.46-5.72 3.01l1.99-3.23c-1.68-1.76-3.57-.8-5.36.18.4 1.73 2.43 3.81.34 5.19.19 1.11.43 2.24.27 3.38-1.07-.34-2.1-.81-3.13-1.22 0-2.01 0-4.02.03-6.03-1.35-.14-2.7-.14-4.03.04.32 2.7.29 5.41.4 8.13-1.76.18-3.52.35-5.27.5a21.33 21.33 0 0 0-1.78-5.41l1.41-.77c-1.95-.11-4.71-1.14-4.53 2.01l1.66-.7-.05 2.9-1.15-.59-.9 1.83 3.92 1.63c-.7 2.06-2.82 1.53-4.4 1.84a84.12 84.12 0 0 0-2.88 3.11c1.99.18 3.73-.85 5.47-1.65l1.58 4.22c-4.14.82-8.02 2.43-12.02 3.67.45-1.24.93-2.47 1.4-3.71-1.68-2.54 1-6.42-2.14-8.05-.68 1.04-1.35 2.08-2.01 3.13-1.6-.44-3.21-.83-4.82-1.19l.89 3.97c-1.67.27-3.33.5-4.98.74-1.05 1.99-2.15 4.32-4.69 2.75a5.26 5.26 0 0 0 .51-4.89l.91-2.34a22.2 22.2 0 0 0-6.69-1.26l-1.07.96c1.37.08 2.96-.39 4.1.65 1.17 3.76.61 8.03-2.69 10.53-2.07.08-3.98.85-5.65 2.05-3.36-.9-6.04 1.02-8.13 3.44l-2.15-2.16c-2.57.97-5.06 2.12-7.61 3.14.93-4.21 6.78-3.7 8.32-7.45-4.1.73-7.49 3.36-11.38 4.7.89-1.46 1.82-2.89 2.73-4.34-2.28-.32-4.84.43-6.95-.66-.57-1.79.71-2.92 1.92-3.97-.66-1.08-1.32-2.16-1.96-3.24 2.41-.74 6.96-.2 6.99-3.76-1.58.29-3.15.62-4.72.94-.26-1.66-.55-3.32-.87-4.97a19.65 19.65 0 0 0-3.65 4.94l1.91 3.24-2.85 1.77 1.48 3.05a423.32 423.32 0 0 1-12.31 5.03l-.55-3.4-2.52 1.19-.05 4.76-2.78.02c-.14-1.16-.24-2.29-.49-3.43-2.38 1.76-5.12 2.85-7.9 3.78.46 2.54-.53 5.1-.03 7.61a29.52 29.52 0 0 1 9.53-1.36 55.85 55.85 0 0 0-1.28-3.5l1.28-1.65a7.2 7.2 0 0 0 5.94 3.02c-.09 2.34-.2 4.67-.35 7.01-3.47-.57-5.57 1.81-7.18 4.47-1.71-1-3.44-1.95-5.19-2.86 1.39-.93 2.74-1.92 4.13-2.87-3.49-1.71-8.28-.77-10.53 2.52-1.14 1.62-1.22 3.65-1.54 5.53l-1.67-.09c.15-1.41.32-2.81.5-4.22a372.5 372.5 0 0 1-5.04-1.11c1.74-1.14 3.82-1.16 5.82-1.31.05-1.68.05-3.36.03-5.03a51.44 51.44 0 0 1-1.64-3.44c-1.78.29-3.64.21-5.31.92-1.1 2.8-1.75 5.75-2.78 8.57-1.93-1.54-1.82-3.74-1.26-5.91-3.59.51-5.34 3.54-7.19 6.23-2.56 1.51-5.28 2.75-7.76 4.4-.68 1.01-3.51-.09-2.41-1.24 3.11-2.96 7.28-4.33 10.94-6.44-.34-1.47-.64-2.95-.92-4.44 4.28-.98 8.41-3.06 12.92-2.47a21.13 21.13 0 0 0 1.75-4.53 32.9 32.9 0 0 0 1.68-3.49 73.57 73.57 0 0 0-3.82 1.77c-.84 1.08-1.47 2.53-3.01 2.71a58.04 58.04 0 0 0-11.59 5.64l-.67 2.8a246.1 246.1 0 0 0-3.19-1.13l1.28 3.14c-2.36 1.79-5.25 2.92-7.92 1.08l-.74 1.75c-3.09.77-6.31 1.38-8.96 3.27l-2.44.43-.29 2.35a16.62 16.62 0 0 1-6.58 1.73l-.28 1.48c2.45.18 4.8.94 7.24 1.24 2.31-1.62 4.35-3.94 7.46-3.62-2.75 2.03-5.05 4.55-7.29 7.1l-1.27-3.01-3.85 1.98c1.1.73 2.22 1.45 3.36 2.15a40.77 40.77 0 0 1-2.09 3.98l3.29 1.46.21-3.07c1.07.78 2.14 1.54 3.23 2.3a107.78 107.78 0 0 0-3.2 5.24l1.76.1c-.16 2.1-.24 4.2-.29 6.3-.96.42-1.9.85-2.84 1.28-.22-3.18-.26-6.37.04-9.54-1.68.28-3.33.68-4.95 1.18-.76.78-1.52 1.55-2.29 2.31l.51 2.94c-.54 2.03-.11 4.05.69 5.95l-3.83-1.01c1.76-2.53.79-5.12-.6-7.48-2.18.59-4.34 1.22-6.54 1.7-.04-2.05-.04-4.1-.05-6.14l-2.43-.28-2.08 4.01c-.91.38-1.81.77-2.71 1.17a9.48 9.48 0 0 1-5.27 5.04c-.63-3.52-.31-7.41-2.32-10.52-1.48 1.91-2.88 4.11-5.53 4.35.71-1.83 1.56-3.61 1.98-5.53-2.59-.5-5 .88-7.43 1.51l-1.79-1.7c-2.19 2.25-2.01 5.43-2.56 8.3-3.08 2.57-8.77 4.43-11.64.77l3.66-.38.51-4.65a105 105 0 0 0-2.71 2.45c-1.64.16-3.27.34-4.9.56a7.92 7.92 0 0 1-4.64 5.14l-1.01 2.6c-4.76 3.12-10.92 1.45-15.57 4.61-2.44.81-3.14-3.04-4.24-4.65a27.69 27.69 0 0 1-2.18 5.63c-1.14.04-2.28.09-3.4.15l-1.77 3.75 2.3 1.86c1.72-1.82 3.59-3.81 6.29-3.84l-1.3 2.98c1.67.51 3.16 1.42 4.38 2.69-1.15.74-2.29 1.48-3.43 2.24l3.06 2.71a22.17 22.17 0 0 0-3.88 6.62l3.78-.15c-1.2 1.26-2.37 2.56-3.56 3.84-3.82.82-6.29 4.32-10.17 5.07-.06-2.32-.59-4.56-2.18-6.29l1.59-.87a19 19 0 0 0-6.05 1.92c1.18.62 2.38 1.27 3.52 1.97-2.54 1.53-.8 3.91-.83 6.12-.84 1.88-3.21 2.32-4.81 3.41-.9-.87-1.82-1.71-2.76-2.53 1.56-2.34 1.6-5.04 1.12-7.73-1.5.65-3 1.31-4.48 2l.94 2.79c-1.56 1.43-4.73 2.35-5.01 4.36l1.84 2.01c-2.18 3.65-6.27 4.89-9.95 6.47-.12 1.13-.25 2.27-.36 3.41a164.8 164.8 0 0 1-5 3.68l.36-2.12a29.32 29.32 0 0 0 3.14-5.02c-3.23.89-6.54 1.85-9.17 4.04-2.71 2.5-7.34 2.19-8.8 6.08-1.39.03-2.78.03-4.16.06-4.51 5.92-12.64 4.9-18.58 8.45-2.96 1.88-6.35 2.63-9.74 3.22-1.97 2.32-4.23 4.62-7.49 4.7.47-2.21 1.99-3.86 3.56-5.35l-5.09-1.2c-1.02 2.48-3.26 3.49-5.71 4.1a37.56 37.56 0 0 1-3.47 7.54c-2.88 3.36-7.33 4.36-10.98 6.59 1.57 1.18 3.39 2.19 4.3 4.03-1.77.58-3.55 1.17-5.31 1.78l.86-2.62a23.6 23.6 0 0 0-5.5-2.81c.72-1.67 1.5-3.33 2.29-4.96-3.06.59-8.13-.52-8.67 3.73l3.59.63c-.53 1.53-1.07 3.08-1.58 4.63l-2.96 1.7c-1.49-1.32-3.02-2.66-5.06-2.96l-2.62-2.2c.01 2.32-.14 4.66-.81 6.91a67.82 67.82 0 0 1-7.86 6.18l-.22-1.89c-1.91.56-3.8 1.14-5.69 1.72a55 55 0 0 1-3.11 3.71l-.58-3.61c-2.6 1.23-4.75 3.17-6.8 5.16a18.82 18.82 0 0 1-1.13 5.06c-1.66.4-3.3.85-4.93 1.33l-.29-3.49c-1.37 1.38-2.55 2.95-3 4.89h-4.52l-.41 4.35-3.25-1.05c-1.98 1.92-3.89 3.91-5.9 5.8l-2.13-.64a9.57 9.57 0 0 1-10.45 1.21c.09 1.88.18 3.77.31 5.66-.47 1.08-.92 2.19-1.38 3.29l-2.39-2.33c-3.3 2.02-5.97 5.18-9.88 6.09-2.77.43-1.95 3.93-3.01 5.85-.96.52-1.94 1-2.94 1.43l-2.09-1.59a47.76 47.76 0 0 0-7.95 4.83c-.76 3.91-3.89 6.45-7.51 7.7v-3.69l-2.02-.23c-1.44 2.95-3.1 5.79-4.42 8.8l-2 1.03c-4.06-.34-7.34 2.22-10.7 4.07a572.42 572.42 0 0 1-23.56 11.98l-2.78.06c-6.2-9.12-10.38-19.52-17.33-28.13-1.92-2.77-3.61-5.7-5.69-8.36-1.62-1.82-.57-4.4-.57-6.53l-3.67-.45c-2.33-2.03-1.56-5.16-1.43-7.86-.37-1.49-1.98-3.55-.37-4.83 5-4.29 10.8-7.53 16.69-10.41 3.32-1.48 6.01-4.5 9.85-4.53 5.56-5.48 13.04-8.09 19.59-12.09 3.96-1.86 7.56-4.34 11.35-6.5 5.66-2.63 11.19-5.5 16.63-8.55 2.09-1.42 4.66-.82 7.01-.73l1.26-3.4c8.71-4.44 17.33-9.04 26.13-13.31 4.12-1.97 7.95-4.74 12.47-5.78 1.14 1.38 1.22 3.21 1.42 4.91a28.3 28.3 0 0 1 7.74-.42l.14-3.47c2.85-1.23 6.18-1.95 8.32-4.34 1.63-1.69.36-4.05-.12-5.92 2.64-1.9 5.85-1.25 8.86-.99l.86-4.02c2-.96 3.94-2.05 6.05-2.76 1.4.32 2.07 1.8 3.17 2.62 1.59.05 3.17-.1 4.76-.13 4.4-1.75 8.29-4.97 13.18-5.23l1.2 3.99a56.76 56.76 0 0 0 6.03-2.25l-4.21-1.69-.01-2.37c3.93-1.25 6.12-5.12 10.03-6.48 4.29.28 8.16-1.83 12.23-2.8l-.7 2.33c-2.76 2-6.07 3.37-8.13 6.23 5.17-.98 10.26-2.66 14.74-5.44 3.13-2.71 7.9-3.21 10.22-6.9-1.57-.12-3.13-.22-4.69-.29l.05-1.87a61.65 61.65 0 0 0 5.05-3.22l3.04-.02a78.8 78.8 0 0 1-1.86 3.52c1.8.06 3.56.42 5.32.77 2.13-2.61 5.52-3.28 8.44-4.62-2.22-2.95-5.35-.37-7.41 1.34l-3.39-.18c3.18-4.34 8.66-6.13 13.87-5.85.02 1.68.04 3.36.04 5.04a63.37 63.37 0 0 0-1.31 3.81c2.77-.5 3.89-2.57 3.4-5.28 2.05-.66 4.11-1.31 6.12-2.09h2.54c.71-1.34 1.42-2.69 2.11-4.04a221.8 221.8 0 0 0-4.49-.82 72.5 72.5 0 0 1 4.51-3.69c.58 1.4 1.14 2.81 1.68 4.23 3.62.22 6.76-1.7 9.6-3.69-1.78-.31-3.56-.58-5.35-.8 1.16-3.63 5.49-4.11 8.6-5.13l-.03 1.69c3.21-3.5 7.7-5.27 12.21-6.45-.1 1.85-1.6 2.94-2.81 4.13 1.3 1.17 2.64 2.38 4.4 2.77 1.07-1.84 2.42-3.55 4.59-4.07 1.38-1.23 2.73-2.51 4.05-3.81-2.5.26-4.98.59-7.48.79l1.12-1.91c5.81-1.14 10.37-5.5 16.17-6.81a301.7 301.7 0 0 0 2.19 3.18 41.19 41.19 0 0 0 3.7-5.7c3.48.33 6.38-1.47 8.81-3.76-.06 1.91-.13 3.83-.15 5.75 3.13-2.26 6.81-2.82 10.58-2.17.69-1.45 1.35-2.9 2-4.37-3.87.33-7.65 1.28-11.51 1.67 1.9-2.45 5.12-2.3 7.9-2.5l1.51-.99 3.39.25c.87-.82 1.75-1.62 2.64-2.42a8.87 8.87 0 0 0-2.05-2.73c1.01-1.81 3-2.48 4.78-3.29l-1.11 3.21 1.96 2.6c-.73 1.34-3.13 2.57-1.86 4.28.68.61 1.4 1.2 2.14 1.75 1.52-1.32 3.04-2.74 4.99-3.4 2.33.34 4.91 1.51 6.94-.35-.26-2.54.37-5.01 1.01-7.44 1.18-.7 2.37-1.41 3.53-2.15 2.65-.24 5.37-.59 8 .11-2.79 1.93-6 3.44-9.42 2.27 1.28 1.14 2.55 2.29 3.86 3.4 2.72-1.01 5.69-1.76 7.89-3.78 2.06-1.71-.47-3.62-2.37-3.68 1.76-1.24 3.47-2.54 5.37-3.56 1.52-.04 2.91.72 4.35 1.11.97-1.1 1.96-2.18 2.98-3.23l2.81 2.99c-1.36.95-2.72 1.88-4.09 2.81l-.03 1.16 1.76.32c3.8-4 9.34-5.39 13.75-8.53l-3.79-.54-.18-2.18a215.1 215.1 0 0 1 5.01-1.9c.92-1.94 1.68-4.21 3.99-4.89l.07 3.38a24.86 24.86 0 0 1 7.8-2.05c3.35-.03 5.67-3.05 8.96-3.31 4.02-.4 7.4-2.91 11.39-3.47a36.73 36.73 0 0 1-2.7 3.28c-2.08.16-4.99-.81-5.95 1.68-3.32-.36-6.24.99-8.45 3.41l-4.01.31a121.5 121.5 0 0 0-1.49 4.31c3.63-.99 6.78-3.15 10.32-4.35 6.4-1.41 12.13-4.72 18.43-6.43 4.61-3.57 10.66-4.31 16.31-4.81 3.01-.7 5.55-2.61 8.46-3.61l.47-1.96c-1.12-.75-2.24-1.49-3.37-2.19 3.22-.72 5.7-2.97 8.33-4.8 1.28-1.98 3.37-2.92 5.59-3.47.02 1.9.03 3.8.07 5.71 2.37-.05 3.42-1.86 4.23-3.81 1.76-.15 3.49.25 5.24.4-.75.89-3.33 3.31-.78 3.78 2.25-.49 4.38-1.39 6.59-2.06.48 3.31-2.84 3.25-5.05 4.07-3.49.8-5.92 3.8-7.46 6.85 3.4 1.06 4.56-2.15 5.73-4.53a128.3 128.3 0 0 1 11.99-2.37 73.33 73.33 0 0 1 4.72-4.61l-1.25-1.5c-2.14 1.51-4.81 1.58-7.3 1.92l-3.16-2.22-1.71 1.41.34-1.46c2.1-.58 3.62-2.14 5.08-3.67 1.96.14 3.94.26 5.91.33l.33-1.98c-1.6-.07-3.19-.15-4.77-.24.77-1.93 2.34-4.94 4.84-3.16.88-1.77 2.83-1.69 4.54-1.94l-.29 2.16c1.88.14 3.77.34 5.64.61 2.19-1.38 4.55-2.46 6.88-3.6 2.96-.42 5.88-1.19 8.88-1.43l.14 3.27 3.41.28c.17-2.02.15-4.32 1.83-5.75 2.66-2.39 6.49-2.41 9.78-3.29 1.33 3 4.79 2.02 7.4 2.24l.81-1.84-3.07-1.1c3.43-2.77 8.26-1.91 12.16-3.69l-2.24-2.57c4.87.24 9.81.31 14.53-1.17-1.83 1.43-3.69 2.81-5.39 4.39 1.5-.08 2.9-.62 4.2-1.37.98-.04 1.96-.07 2.96-.09 1.49-3.78 5.71-4.54 8.29-7.25l-3.66-.92c2.47-.84 5.02-1.39 7.55-2.06l1.95 2.25 2.36.37c.85 1.07 1.72 2.12 2.61 3.16l.41-3.6 2.03-1.59c1.7-.3 3.74.17 5.22-.9 1.13-1.62 1.96-3.48 3.63-4.66l-.18 3.3 3.16.27a20.15 20.15 0 0 0-4.66 5l-2.83-1.14-.9 2.3c-1.3.58-2.58 1.17-3.83 1.81 4.68.44 9.33-.55 14.02-.47l.2 2.58 1.65-.39 1.65-1.82-.3-1.73-3.49-1.96c.91-.73 1.82-1.46 2.75-2.18l-.07-3.26c2.18.13 4.2.91 5.97 2.19 0-2.15.03-4.3.01-6.44 2.26-2.47 5.44-3.19 8.68-2.74l1.16-1.67.22 2.02c1.94-.47 3.98-.85 5.65-2.05 2.59-.74 5.31-.84 7.91-1.52l.67-1.94c.93-.36 1.87-.7 2.83-1.01.63 1.15.25 3.64 2.23 3.45 1.35-.01 2.29-1.19 3.43-1.77l-.08-2.24 2.82-1.29a157.3 157.3 0 0 0 4.77 4.08c1.04-1.37 2.08-2.74 3.1-4.12 1.56.3 3.35 1.81 4.88.6 1.33-.75 1.98-2.21 2.88-3.38 1.9-.66 3.77-1.31 5.69-1.96l-.29 3.82c2.07-.52 1.38-3.01 1.98-4.5l-.01.74c4.09-1.77 8.28-3.6 12.79-3.94 5.44-.42 10.59-2.49 16.05-2.78 2.47-.11 4.77-1.1 7.09-1.86l2.28 2.28.11-2.67c1.87-.6 3.72-1.29 5.66-1.69 2.46.99 4.61 2.65 7.15 3.5 2.6-2.36 3.51-6.96 7.71-6.98 14.04-1.98 27.78-6.27 41.99-6.9l1.34-1.09c2.03-.18 4.07-.36 6.09-.73 2.73.73 5.55.68 8.35.38.83-1.37 1.72-2.7 2.7-3.98 2.48.69 5.02.22 7.54.15 2.99 1.01 6.4 2.18 9.41.56l.42-1.95a48.26 48.26 0 0 0 5.15-3.74c1.37.41 2.75.83 4.13 1.27 1.04.85 2.22 2.59 3.77 1.57 3.66-1.5 7.09-3.82 11.02-4.56 8.46.08 16.5-3.29 24.95-3.44 6.4-.51 12.74-1.62 19.11-2.49 8.06-.3 15.96-2.16 24.02-2.48 2.95-.12 5.93.01 8.87-.39 11.22-2.25 22.72-2.06 34.09-3.03z" style="fill:#034695"/>
  <path d="M901.16 122.29c1-1.4 3.58.2 2.39 1.65-1.03 1.39-3.62-.2-2.39-1.65z" style="fill:#83a3ca"/>
  <path d="M827.74 174.6c24.52-11.17 48.87-22.72 73.42-33.85-9.47 9.97-19.67 19.24-28.75 29.57-10.46 10.57-20.88 21.17-31.42 31.65-17.01 18.32-35.14 35.57-52.29 53.76-20.83 20.84-41.07 42.24-61.98 62.99-14.59 16.06-30.72 30.66-45.28 46.75-10.45 10.5-20.85 21.07-31.35 31.53-13.11 14.53-27.46 27.89-40.99 42.04-7.99 8.68-16.44 16.95-24.72 25.37-10.92 10.73-21.24 22.04-32.1 32.83-18.12 18.22-35.78 36.89-54.05 54.97-13.5 14.81-28.24 28.46-41.95 43.08-11.46 12.21-23.51 23.86-35.26 35.79-14.32 15.96-30.31 30.36-44.78 46.18-14.29 14.6-28.77 29-42.93 43.7 5.02-19.8 10.82-39.41 16.14-59.14 11.41-41.71 23.14-83.33 34.4-125.07l.33-.68c9.04-33.04 18.22-66.05 27.32-99.08 12.19-5.7 24.22-11.75 36.56-17.09-6.02 23.09-12.7 46.01-18.89 69.06-1.62 6.03-3.51 12-4.97 18.08-10.02 35.84-19.79 71.74-29.76 107.59 5.4-3.98 9.21-9.57 14.07-14.12 9.61-9.71 19.19-19.44 28.87-29.08 12.39-13.64 25.72-26.4 38.66-39.51 12.19-13.39 25.23-25.96 37.95-38.84 12.21-13.13 24.97-25.74 37.62-38.46 12.93-13.71 26.28-27.02 39.56-40.4 14.51-15.81 30.36-30.36 44.83-46.21 10.3-10.37 20.55-20.78 30.89-31.11 13.22-14.73 27.87-28.12 41.41-42.53 13.78-14.89 28.73-28.68 42.49-43.58a3021.29 3021.29 0 0 1 30.83-31.18c13.19-14.15 27.07-27.63 40.54-41.51 1.52-1.64 3.6-2.54 5.58-3.5z" style="fill:#034695"/>
  <path d="M647.4 169.11c2.99-1.57.16 3.33 0 0z" style="fill:#83a3ca"/>
  <path d="M639.51 173.32l2.44.07c-.8 2.22-2.31 4.04-3.98 5.67l-1.42-1.96a153.7 153.7 0 0 0 2.96-3.78zM613.52 177.31c1.73.09 1.19 2.83-.4 2.56-1.72-.08-1.17-2.81.4-2.56zM617.52 178.46c1.64-.39 2.13.21 1.48 1.8-1.64.39-2.13-.21-1.48-1.8zM602.14 181.91l1.65-.49c-.28 2.61 1.02 5.97-1.3 7.91-.2-2.47-.26-4.94-.35-7.42zM629.98 185c.94-.5 1.89-.99 2.85-1.48l-.13 2.57-2.72-1.09zM583.39 189.55c3.32-.15 6.41-2.99 9.71-1.63-3.14.98-6.39 1.88-9.71 1.63z" style="fill:#feffff"/>
  <path d="M662.31 190.26c2.01-.67 4.11-.46 6.16-.13l-1.33 2.05c-3.27.97-6.68 1.43-10.01 2.17-.51-3.21 2.94-3.42 5.18-4.09z" style="fill:#034695"/>
  <path d="M557.47 195.72c-.09-2.26.46-4.32 2.69-5.26.35 1.87.75 3.75 1.17 5.62-2.07 2.34-2.32 5.49-3.53 8.24a31.82 31.82 0 0 0-1.67-7.36l1.34-1.24zM565.07 193.9c.19-.98.36-1.96.51-2.94 1.86.47 3.75.87 5.63 1.26a23.91 23.91 0 0 1-6.14 1.68z" style="fill:#feffff"/>
  <path d="M618.54 193.12c1-1.7 3.23.31 2.22 1.72-.97 1.72-3.28-.33-2.22-1.72zM663.32 194.88c.83-.57 3.2.01 2.04 1.29-.98.73-2.07.97-3.27.73-1.68-.55.38-1.98 1.23-2.02z" style="fill:#034695"/>
  <path d="M631.41 196.05c3.03-1.48.09 3.31 0 0z" style="fill:#83a3ca"/>
  <path d="M625.57 199.28l.06-1.68.83-.47c1.68.09.3 2.61-.89 2.15zM639.97 203.5c3.8-2.69 7.95-5.26 12.5-6.43l-.46 2.96c-3.56 2.33-7.93 2.85-12.04 3.47z" style="fill:#034695"/>
  <path d="M539.08 201.77c3.82-1.09 7.56-2.47 11.41-3.48l.03 2.02a45.78 45.78 0 0 1-9.49 1.71l1.39 1.05c-1.84.18-3.68.31-5.52.27.68-.56 1.31-1.27 2.18-1.57zM580.53 202.36a15.86 15.86 0 0 1 5.88-1.61c-1.72 1.35-3.71 2.17-5.88 1.61z" style="fill:#feffff"/>
  <path d="M624.29 200.39l2.61-1.08c-.22 1.69-.4 3.39-.63 5.08l-1.89.18c-.04-1.39-.06-2.79-.09-4.18zM633.59 203.56c.02-1.78.31-3.48 2.37-3.68.68 1.69 1.42 3.36 2.15 5.04-3.33 1.37-6.74 2.65-10.35 3.02.5-1.59 1.04-3.16 1.61-4.72l4.22.34zM611.15 201.86c.75-.15 1.51-.28 2.28-.42.12 3.2.74 6.33 1.18 9.49-.54.86-1.25 1.6-1.91 2.35a35.37 35.37 0 0 1-1.55-11.42z" style="fill:#034695"/>
  <path d="M532.59 202.71l3-.32-.33 1.82-3.11.22.44-1.72z" style="fill:#feffff"/>
  <path d="M619.72 203.54c.7-1.51 1.53-1.59 2.52-.25-.71 1.52-1.54 1.61-2.52.25z" style="fill:#034695"/>
  <path d="M601.71 202.86l.7-.27c1.84.14.57 3.1-.75 1.73l.05-1.46zM516.9 206.41c2.15-.5 4.27-1.14 6.37-1.85 1.2.8 2.38 1.61 3.58 2.44-1.95.57-3.88.56-5.09-1.45-1.38 1.31-1.3 3.1-1.29 4.83l-1.35-.31a597 597 0 0 0-3.03-2.27l.81-1.39z" style="fill:#feffff"/>
  <path d="M619.14 206.75c1.4-.5 2.82-.98 4.25-1.46l2.4 2.28-.3 1.71c-1.14.2-2.28.37-3.42.5-1.28-.65-1.95-2.07-2.93-3.03z" style="fill:#034695"/>
  <path d="M506.99 208.7c1.72-.73 3.51-1.68 5.45-1.25 1.31 1.35-.11 3.03-.36 4.53-1.97-.29-3.91-.59-5.86-.9l.77-2.38zM492.73 209.05c.59-1.72 3.66-.83 3.66.84-.7 1.55-3.63.82-3.66-.84z" style="fill:#feffff"/>
  <path d="M593.24 209.01c3.3-.91.07 4.25-.83 1.24l.83-1.24z" style="fill:#83a3ca"/>
  <path d="M496.26 215.18a38.68 38.68 0 0 1 5.84-3.16 35.65 35.65 0 0 1-1.08 3.16c-2.82 1.18-5.8 1.98-8.69 2.96l-.3-2.89 4.23-.07z" style="fill:#feffff"/>
  <path d="M585.66 212.02c.89-1.46 3.82-.2 2.36 1.35-.95 1.37-3.81.24-2.36-1.35z" style="fill:#034695"/>
  <path d="M518.88 213.24c3.34-.21-1.24 3.1 0 0zM543.31 216.2c1.25.73 1.19 1.4-.17 2.01-1.26-.73-1.21-1.41.17-2.01z" style="fill:#83a3ca"/>
  <path d="M460.89 219.97a35.37 35.37 0 0 1 6.28-1.38l.14 1.32c-2.06 1.25-2.12 2.92-.71 4.74-1.21.44-2.46.76-3.71 1l-.03-3.82a178.2 178.2 0 0 1-1.97-1.86z" style="fill:#feffff"/>
  <path d="M570.28 217.9c.8-1.48 3.13 0 2.17 1.38-.85 1.44-3.12 0-2.17-1.38zM436.7 221.14c2.21-.76 4.45-1.46 6.71-2.08.51 1.69 1.02 3.4 1.45 5.12-1.65.45-3.3.88-4.95 1.29-1.08-1.44-2.18-2.86-3.21-4.33z" style="fill:#034695"/>
  <path d="M492.94 223.04a24.11 24.11 0 0 1 6.05-4.18c-.97 2.37-2.19 6.24-5.4 5.75l-.65-1.57z" style="fill:#feffff"/>
  <path d="M575.2 223.78a12.27 12.27 0 0 1 4.73-4.67c1.01.82 3.51.9 2.83 2.72-2.13 1.75-4.94 1.87-7.56 1.95zM447.25 221.33c1.48-1.06 3.4 1.31 1.46 2.14-1.47 1.12-3.44-1.37-1.46-2.14z" style="fill:#034695"/>
  <path d="M537.55 222.15c.58-1.6 3.49-.77 2.88.94-.64 1.5-3.49.76-2.88-.94zM505.25 224.04c.96-1.08 2.07-1.99 3.17-2.93.51 1.64-.06 3.2-.75 4.67-.88-.48-2.12-.62-2.42-1.74zM526.03 224.33c-1.66-.6-.68-3.39.99-2.91 1.63.56.6 3.35-.99 2.91zM532.55 222.68l1.66.07c.21.81.42 1.63.65 2.45l-2.89-.03.58-2.49zM512.96 224.15l1.56.81c-1.35 2.32-1.37 4.97-1.21 7.57-1.76-2.55-.98-5.6-.35-8.38z" style="fill:#feffff"/>
  <path d="M571.41 224.28c2.99-1.5.08 3.34 0 0z" style="fill:#83a3ca"/>
  <path d="M561.01 228.78c.58-1.12.34-3.26 2.08-3.24.96.07 1.92.19 2.88.35l-.39 2.46c-1.53.15-3.05.3-4.57.43z" style="fill:#034695"/>
  <path d="M443.71 230.19c3.66-1.99 7.8-2.7 11.76-3.84l-.26 2.64c-3.93 1.52-7.86 3.2-12.11 3.56-3.07.15-5.88 1.45-8.53 2.89l-.22 2.58-4.59 2.31-1.24-3.49c2.33-1.75 4.15-5.1 7.42-4.96 2.68-.03 5.39-.37 7.77-1.69zM503.26 229.93c.36-3.34 4.53.24 1.72 1.53l-1.72-1.53z" style="fill:#feffff"/>
  <path d="M555.28 229.27c2.33-.97 2.64 2.29.35 2.37-2.34 1.08-2.59-2.25-.35-2.37z" style="fill:#034695"/>
  <path d="M475.05 231.1c1.64-.51 2.18.04 1.64 1.66-1.65.52-2.19-.04-1.64-1.66z" style="fill:#83a3ca"/>
  <path d="M497.6 233.52c1.29-.03 2.58.03 3.88.17a29.66 29.66 0 0 1-4.36 2.28l.48-2.45zM422.46 237.59c1.3 0 2.6.02 3.91.04l.08 2.66h-3.96c.01-.9 0-1.8-.03-2.7zM417.42 240.38l2.58.25c-.57 1.87-2.63 1.97-4.17 2.5-4.72 1.43-9.24 4.37-14.36 3.73 4.63-3.58 10.6-4.57 15.95-6.48z" style="fill:#feffff"/>
  <path d="M483.73 243c1.98-.95 3.72-3.05 6.13-2.51-1.83 2.08-3.97 4.22-6.95 4.19l.82-1.68zM373.93 245.15a30.4 30.4 0 0 1 2.32-4.08c.25.91 1.89 2.6.31 3.32l-2.63.76zM474.22 242.2c2.9-1.72.25 3.35 0 0zM461.42 243.5l2.73.46a92 92 0 0 1-2.91 2.67l.18-3.13z" style="fill:#034695"/>
  <path d="M370.29 244.41c.54.52.54.52 0 0z" style="fill:#83a3ca"/>
  <path d="M380.61 244.47l3.38-.04c-.18 2.28-1.68 3.53-3.95 3.55.17-1.18.36-2.35.57-3.51z" style="fill:#034695"/>
  <path d="M425.17 245.42l.28 1.02a126.54 126.54 0 0 0-4.55 5l-2.89-.2c1.07-1.17 2.16-2.33 3.28-3.45 1.61-.22 2.96-1 3.88-2.37z" style="fill:#feffff"/>
  <path d="M477.26 245.37l2.24-.25c-.07 2.34-.14 4.68-.26 7.01l-1.95.46c.01-2.41.05-4.82-.03-7.22z" style="fill:#034695"/>
  <path d="M484.16 247.23c1.42-.53 1.88-.09 1.4 1.33-1.43.53-1.89.09-1.4-1.33z" style="fill:#83a3ca"/>
  <path d="M503.18 246.87c1.72-.95 2.04 1.95.62 2.43-1.74.96-2.04-1.95-.62-2.43z" style="fill:#034695"/>
  <path d="M393.69 250.67a7.4 7.4 0 0 1 5.07-2.38l-.7 1.94c-1.46.18-2.92.33-4.37.44z" style="fill:#feffff"/>
  <path d="M497.32 249.03c1.04.3 2.08.65 3.1 1.03-1.38.64-2.74 1.29-4.12 1.92.33-.99.67-1.97 1.02-2.95z" style="fill:#034695"/>
  <path d="M468.64 250.44c1.18-.01 2.38.01 3.57.03a100 100 0 0 1-3.47 2.33l-.1-2.36zM382.79 253.7c2.26-.63 4.5-1.31 6.7-2.13l.3 1.58c-4.9.61-8.42 5.46-13.59 4.49 1.64-.5 3.31-.88 4.99-1.23l1.6-2.71zM413.19 253a102 102 0 0 1 1.52-.69c-.33 2.96-3.21 3.68-5.76 3.27a33.3 33.3 0 0 1 4.24-2.58z" style="fill:#feffff"/>
  <path d="M483.63 255.89a35.22 35.22 0 0 1 3.75-2.77l.23 2.45c-1.33.13-2.66.24-3.98.32zM341.23 261.69c-2.64-2.6.95-5.83 2.67-7.88a93.16 93.16 0 0 0 2.36 4.54c-.86 2.09-2.37 4.59-5.03 3.34zM439.54 257.73c1.23-.05 3.97-2.42 3.94-.09-1.26.81-2.6 1.46-3.92 2.16l-.02-2.07zM472.4 258.45l2.1.28-.32 1.52c-1.79.94-3.69 1.69-5.75 1.59a98.55 98.55 0 0 1 3.97-3.39zM427.81 260.51a29.61 29.61 0 0 1 7.65-1.24l-.25 1.91c-4.34 1.19-8.42 3.11-12.74 4.33l.37-1.85 3.37-.33 1.6-2.82z" style="fill:#034695"/>
  <path d="M382.94 268.06c.66-1.88 1.94-3.13 4.04-2.97-.64 1.04-1.31 2.06-1.99 3.08l-1.97 3.46a170.48 170.48 0 0 0-4.04-4.86l3.96 1.29zM347.13 270.75c-.53-3.06 2.35-4.84 4.93-3.06a72.03 72.03 0 0 1-4.93 3.06z" style="fill:#feffff"/>
  <path d="M433.02 266.83l3.56 1.9-3.02 1.51-1.04-.89.5-2.52z" style="fill:#034695"/>
  <path d="M339.06 268.16c1.93.71 3.44 2.12 4.92 3.49l-2.04 1.26a53.6 53.6 0 0 1-2.88-4.75zM368.21 271.91c1.22-1.24 2.45-2.47 3.7-3.69l1.94 1.42c-.7 2.68-3.44 2.21-5.64 2.27zM392.23 269.28l2.16.32.36 3.82a50.23 50.23 0 0 1-6 1.64c.73-2.17 2-4.07 3.48-5.78zM396.96 272.18a85.39 85.39 0 0 1 6.22-3.25c-.69 1.01-1.39 2.01-2.11 3 .28 1.47.58 2.94.9 4.41-1.27.5-2.54.98-3.81 1.45.67-1.61 1.38-3.2 2.06-4.81l-3.26-.8z" style="fill:#feffff"/>
  <path d="M422.9 269.02c1.41-.43 1.89.05 1.43 1.44-1.43.42-1.9-.06-1.43-1.44z" style="fill:#83a3ca"/>
  <path d="M310.3 272.64l2.36-.1-.35 1.73-2 .2-.01-1.83zM331.39 272.58l1.28 1.55c-2.12 4.43-8.09 3.13-11.43 6.12l-2.16-.07c.51-.9 1.03-1.8 1.58-2.69a11.8 11.8 0 0 0 10.73-4.91z" style="fill:#feffff"/>
  <path d="M288.93 273.24c.94-1.24 3.84-.1 2.64 1.47-.95 1.24-3.85.09-2.64-1.47zM363.42 272.87c1.61-.51 2.16.06 1.65 1.7-1.62.49-2.17-.07-1.65-1.7z" style="fill:#83a3ca"/>
  <path d="M432.71 273.43c1.65.01 3.31.07 4.97.14l-.11 1.92c-1.84.56-3.69 1.12-5.54 1.64.22-1.24.44-2.47.68-3.7z" style="fill:#034695"/>
  <path d="M297.03 276.93c1.94-.74 4.03-1.18 6.03-.34-1.85 1.27-4.46 3.25-6.03.34zM304.53 277.33l1.81.13-.22 3.64c-2.98 1.42-6.05 3.04-9.48 2.48 2.2-1.89 4.97-2.65 7.75-3.26l.14-2.99zM332.1 279.47c.77-1.66 2.12-2.44 3.97-1.84-1.11 1.03-2.33 2.02-3.97 1.84z" style="fill:#feffff"/>
  <path d="M427.89 277.45c3.34-.03-1.39 3.04 0 0z" style="fill:#83a3ca"/>
  <path d="M365.67 281.06a30.34 30.34 0 0 1 3.28-1.76c-.19 1.35-.38 2.71-.59 4.07l3.05.58c-1.01 1.58-3.29 2.76-2.76 4.93l2.71.98c-.29 1.5-.57 3-.88 4.5-1.65.39-3.31.77-4.96 1.14.79-4.8-.19-9.63.15-14.44z" style="fill:#034695"/>
  <path d="M327.17 280.99c1.53-1.26 3.73 1.22 1.64 2.15-1.6 1.31-3.81-1.17-1.64-2.15z" style="fill:#feffff"/>
  <path d="M267.09 281.98c3.78-.77-.22 4.7-1.05 1.3l1.05-1.3z" style="fill:#83a3ca"/>
  <path d="M336.5 281.78l.79-.37c2.18-.06.98 3.48-.7 2.03l-.09-1.66z" style="fill:#feffff"/>
  <path d="M385.15 286.38c.13-1.9.09-4.12 2.64-3.96.02 2.31-.08 4.64-.56 6.92.23 2.25.41 4.51.56 6.78-2.39 1.15-5.71 2.2-6.88-1.12 1.02-2.32 3.96-2.8 5.74-4.38-1.9-.45-3.78-.14-5.6.44l.33-3.27 3.77-1.41z" style="fill:#034695"/>
  <path d="M277.73 285.8c1.21 1.2 1.93 2.75 2.62 4.29-2.67 1.77-5.84 3.04-8.95 1.48.34-1.42.7-2.84 1.07-4.25 2.03.76 3.76-.21 5.26-1.52z" style="fill:#feffff"/>
  <path d="M304.17 286.98c2.97-1.55.14 3.34 0 0z" style="fill:#83a3ca"/>
  <path d="M351.6 293c.35-2.87 3.45-3 5.62-3.63-1 2.39-2.94 3.83-5.62 3.63zM259.96 292.02c.82-1.28 3.43-.16 2.29 1.28-.83 1.22-3.41.15-2.29-1.28z" style="fill:#034695"/>
  <path d="M281.84 294.11c2.43-.52 4.66-1.65 6.96-2.6-.25 4.03-4.86 4.51-7.94 5.05l.98-2.45zM306.97 292.7l1.64-.23.1 2.88-3.57 2.1c.6-1.59 1.22-3.17 1.83-4.75z" style="fill:#feffff"/>
  <path d="M231.6 298.04c3.07-3.16 7.62-4.08 11.73-5.14l.36 2.51c-1.94-.07-3.89-.25-5.82 0-2.12.82-4.03 2.12-6.27 2.63zM342.77 295.03c1.16-.91 1.79-.65 1.88.79-1.16.92-1.78.65-1.88-.79zM346.78 299.05c1.51-1.37 2.59-3.12 4.05-4.53 3.63-.64 7.12 1.48 10.81.93-.85 1.96-2.68 2.39-4.65 2.38l-2.06 2.55a6.59 6.59 0 0 0 6.16.16c-.31 2.06-2.21 2.22-3.93 2.39l-1.94 1.5-4.93.01c-1.91 2.37-3.64 4.88-5.84 7 .21-1.55.49-3.09.81-4.62l-1.49-.84c-1.26 1.77-3.99 4.03-1.09 5.74l.12 3.5a16.36 16.36 0 0 1-5.42 1.51c2.43-3.09 2.19-6.96 1.98-10.65-3.89.01-7.39 1.85-11.06 2.89l.97 2.92c1.63-.19 3.26-.38 4.9-.43-1.74 2.96-4.95 3.2-8.01 2.97.61-1.21.72-2.89 2.26-3.37-.83-1.1-1.63-2.22-2.41-3.34.62-.99 1.3-1.94 1.9-2.93 3.21 1.7 6.31-.41 9.04-2 2.98-1.98 6.79-1.89 9.83-3.74z" style="fill:#034695"/>
  <path d="M248.28 296.04c3.05-1.36-.08 3.34 0 0zM326.44 296.05c3.03-1.46.06 3.33 0 0z" style="fill:#83a3ca"/>
  <path d="M334.09 299.01c1.74-.94 3.5-1.83 5.27-2.71l.14 1.94c-1.69 1.17-4.03 3.7-5.41.77z" style="fill:#034695"/>
  <path d="M295.81 297.67l4.79.04-.27 2.25c-1.34.62-2.68 1.25-4 1.9.35 2.46.62 4.93.9 7.4 1.76.09 3.51.19 5.27.35-1.42 3.05-5.51 2.54-7.85 4.64l-2.03-.99-.23-1.71 1.68-1.59c.8-3.19 2.75-6.6.75-9.76.33-.84.65-1.69.99-2.53z" style="fill:#feffff"/>
  <path d="M365.43 297.39l2.05.38c1.2.8.53 3.45-1.09 2.55-1.05-.79-1.37-1.76-.96-2.93z" style="fill:#034695"/>
  <path d="M284 305.51c1.33-1.81 2.64-3.62 4.06-5.35l1.34 2.79c-.4.96-.78 1.92-1.16 2.89a9.66 9.66 0 0 1-4.24-.33zM305.54 304.58l.44-4.01c1.94.25 3.91.23 5.87.18a34.37 34.37 0 0 0-6.31 3.83z" style="fill:#feffff"/>
  <path d="M365.31 302.82l3.35-.55.04 1.92-3.34.72-.05-2.09z" style="fill:#034695"/>
  <path d="M300.96 303.51c1.63-.5 2.13.07 1.48 1.7-1.64.47-2.13-.09-1.48-1.7zM342.5 303.24c1.57-.05 1.14 2.43-.22 2.38-1.53.03-1.12-2.43.22-2.38z" style="fill:#feffff"/>
  <path d="M216.23 304.22c2.54-.79 1.58 3.56-.48 3.06-1.68-.43-.84-2.76.48-3.06zM204.81 309.26c1.16-.9 2.33-1.76 3.52-2.61l.19 1.84a32.93 32.93 0 0 1-6.89 3.88l1.17-2.7 2.01-.41z" style="fill:#034695"/>
  <path d="M305.33 308.41c1.65-.63 3.3-1.29 4.94-1.95l-.06 2.86 2.94 1.82a34.63 34.63 0 0 1-5.06 4.06c.77-2.15 1.61-4.27 2.13-6.5l-4.89-.29zM314.81 307.74c1.27-.08 2.54-.15 3.82-.19-.51 1.18-1.04 2.35-1.56 3.53a27.58 27.58 0 0 1-2.26-3.34z" style="fill:#feffff"/>
  <path d="M211.02 312.13c2.86-1.48 5.43-4.35 8.96-3.56-2.02 2.89-4.31 6.53-8.33 6.39l-.63-2.83z" style="fill:#034695"/>
  <path d="M229.66 311.03c1.59-.39 3.19-.8 4.77-1.26l-.16 1.53-5.25 1.47.64-1.74zM268.99 315.55c.5-1.06 1.05-2.07 1.61-3.09 1.33.56 2.68 1.11 4.04 1.62-1.47.64-5.58 1.44-4.4 3.71l2.48 1.08-.65 1.28-2.27.43-1-2.39a8.98 8.98 0 0 0-3.73-.69 238.3 238.3 0 0 0 3.92-1.95z" style="fill:#feffff"/>
  <path d="M284.42 311.96c2.82-1.79.41 3.31 0 0z" style="fill:#83a3ca"/>
  <path d="M315.67 316.91c.71-1.08 1.5-2.1 2.42-3 .29 1.26.57 2.53.84 3.8l-3.26-.8zM298.18 315.58c1.44-.08 2.87-.18 4.32-.24-.8 2.5-3.55 2.6-5.64 3.34a24.9 24.9 0 0 1-6.42.99c2.79-.98 5.89-1.51 7.74-4.09zM269.79 324.18c3.03-2.95 6.84-4.88 10.57-6.8l.54 2.44c-4.61 2.72-9.69 4.6-14.62 6.66-.98.83-1.83 1.8-2.71 2.72-1.75.29-3.46.69-5.14 1.23l-.12-1.52 3.72-1.53c-1.86-1.99-.98-4.05.99-5.46l1.81 3.62a61.7 61.7 0 0 0 4.96-1.36z" style="fill:#feffff"/>
  <path d="M168.6 324.15a164.5 164.5 0 0 0 9.99-4.18l-.49 2.01c-2.86 1.53-5.48 3.44-8.1 5.34l-1.4-3.17z" style="fill:#034695"/>
  <path d="M194.13 321.76c-.37-1.75 2.61-3.07 3.14-1.07.32 1.61-2.65 2.89-3.14 1.07zM249.05 326.96c.8-1.86 2.51-2.98 4.13-4.06-.71 1.94-2.37 3.16-4.13 4.06zM281.88 323.58l1.04-.2c.97 1.6 2.5 2.6 4.2 3.32-1.46 1.26-2.99 2.59-2.87 4.73 1.82-.17 3.75-2.67 5.55-1.26.21 2.77-3.87 3.94-6.2 4.66l-.07-4a7.56 7.56 0 0 1-2.86-2.2c.6-1.64.92-3.34 1.21-5.05z" style="fill:#feffff"/>
  <path d="M303.33 323.95c1.28.65 1.26 1.33-.07 2.03-1.29-.65-1.27-1.33.07-2.03z" style="fill:#83a3ca"/>
  <path d="M193.91 329.78c1-1.58 2.32-2.91 3.88-3.93-.04 2.26-1.92 3.43-3.88 3.93zM263.91 330.37c1.89-.4 3.79-.76 5.71-.94-.46 1.3-.96 2.6-1.44 3.9-1.87.35-4 .01-5.61 1.17-1.41 1.06-2.64 2.31-3.89 3.55l-.21 3.26c1.52.55 3.03 1.12 4.54 1.69l-.49 1.96c-2.88.9-5.57 2.26-8 4.05l-.21-2.31c1.6-1.02 2.74-2.32 2.49-4.36-1.07.43-2.13.87-3.18 1.32-.05-1.55-.1-3.09-.17-4.64l-4.57 2.67-1.91 2.62c-1.8-1-3.58-.11-5.31.53l-.93 2.38-.9-2.01c-3.15 1.69-5.34 5.05-9.12 5.68 1.01-2.82 3.16-4.92 5.21-7-.82-.21-1.64-.4-2.45-.59-.75.71-1.5 1.43-2.24 2.16a153.7 153.7 0 0 0-5.54-1.33l1.82-3.18-4.4 1.13c.83-2.97 3.86-4.27 6.66-4.65a115.9 115.9 0 0 0 1.59 4.65c1.35-1.51 2.25-3.51 3.92-4.71 5.62-2.36 11.23-4.77 16.92-6.98 3.3.77 6.27 4.95 9.77 2.7.74-.84 1.33-1.8 1.94-2.72zM186.02 330.97c1.33.17 2.65.38 3.97.64-1.31 1.32-3.06 1.98-4.8 2.52l.83-3.16zM272.83 333.68a7.75 7.75 0 0 1 5.37-2.39c-.87 2.28-3.25 2.52-5.37 2.39z" style="fill:#feffff"/>
  <path d="M239.95 338.41a43.86 43.86 0 0 0 13.3-5.95l2.81 2.46c-4.56 1.78-9.58 2.71-13.55 5.73-2.2 1.5-5.07 3.11-7.37.84 1.46-1.2 2.85-2.72 4.81-3.08z" style="fill:#034695"/>
  <path d="M152.43 335.63c1.11-.75 3.98-.42 3.39 1.37-.13 2.66-3.63 1.53-5.36 1.47-1.01-1.53.88-2.25 1.97-2.84z" style="fill:#feffff"/>
  <path d="M232.17 335.32c.55.53.55.53 0 0z" style="fill:#83a3ca"/>
  <path d="M164.13 339.29c1.07-1.25 2.15-2.49 3.24-3.72l.48 3.53c-3.65 1.56-6.95 4.15-10.98 4.61a93.95 93.95 0 0 1 2.65-3.32l4.61-1.1z" style="fill:#feffff"/>
  <path d="M139.32 338.71a89.59 89.59 0 0 1 5.4-2.4c.02 3.26-3.06 4.74-5.37 6.35l-.03-3.95z" style="fill:#034695"/>
  <path d="M267.28 338.26c1.29.68 1.26 1.34-.09 2-1.3-.68-1.27-1.35.09-2z" style="fill:#83a3ca"/>
  <path d="M151.74 342l2.52-.96.14 3.43-2.72 1.22c0-1.24.03-2.46.06-3.69zM205.22 341.17l2.28.26-.05 2-3.05.06.82-2.32z" style="fill:#feffff"/>
  <path d="M131.53 342.16c1.89.93 3.76 1.91 5.66 2.84l-1.8 1.26c-1.24-.8-2.47-1.59-3.72-2.37l-.14-1.73z" style="fill:#034695"/>
  <path d="M217.42 344.28l4.03 2.44c-1.01 1.28-2.11 2.59-3.78 2.97-5.13 1.67-9.75 4.52-14.8 6.39-1.31.81-2.42.13-3.18-.99 1.9-1.08 3.8-2.18 5.7-3.25-.3-1.03-.57-2.05-.86-3.07l2.52 2.17c3.75-1.43 8.47-2.86 10.37-6.66zM138.78 353.03c1.52-3.62 4.65-6.73 8.89-6.14l-.11 2.34c-2.87 1.38-5.66 3.01-8.78 3.8zM245.9 347.76c2.11-.22 4.24-.39 6.38-.37a9.9 9.9 0 0 1-8.46 3.14l-.56 2.71-2.22.63-2.02-1.3c-2.91 3.1-7.2 3.66-11.24 3.61 1.42-2.08 3.73-3.21 6.17-3.56 4.33-.57 8.2-2.75 11.95-4.86zM226.83 348.66l1.89-.19-.14 1.99-1.97.19.22-1.99zM124.42 349.75c1.26-1.54 3.28.53 1.71 1.75-1.26 1.58-3.52-.57-1.71-1.75z" style="fill:#feffff"/>
  <path d="M189.21 351.09c-.29-1.56 2.35-2.6 3.5-1.74.36 1.6-2.35 2.58-3.5 1.74z" style="fill:#83a3ca"/>
  <path d="M116.68 352.27l3.22 1.57-.29 1.51-3.11.09c.05-1.06.11-2.11.18-3.17zM132.88 353.6l1.8-.19-.28 1.76c-3.35 1.63-6.87 2.9-10.09 4.79l.52-2c3.53.41 6.11-1.62 8.05-4.36zM217.65 353.59l2.93-.38-.44 2.07-2.75.53.26-2.22zM168.67 357.37c1.64-.47 3.42-1.22 5.03-.23-.67.78-1.35 1.56-2.04 2.33-1.04.08-2.09.17-3.13.27l.14-2.37zM185.89 362.28c3.63-1.6 7.26-3.24 10.5-5.57-.66 2.49-3.39 2.87-5.23 4.15-3.08 1.98-6.68 2.81-9.94 4.41l-1.97.04.6-1.57c1.99-.59 4-1.08 6.04-1.46zM205.88 358.91c1.14-.45 2.28-.92 3.41-1.4l1.2 1.46a21.51 21.51 0 0 1-5.98 2.49l1.37-2.55zM115.54 363.62c-.86-1.41 1.12-3.72 2.63-2.82.93 1.4-1.17 3.66-2.63 2.82zM197.74 363.38a32.57 32.57 0 0 1 4.21-2.13c.01 2.61-2.22 2.41-4.21 2.13z" style="fill:#feffff"/>
  <path d="M98.84 362.92c1.63-.53 2.19.02 1.67 1.65-1.63.51-2.19-.04-1.67-1.65z" style="fill:#83a3ca"/>
  <path d="M167.56 363.91c.54-1.58 3.43-.89 2.92.82-.52 1.65-3.41.88-2.92-.82z" style="fill:#feffff"/>
  <path d="M231.12 363.11c1.24-1.75 3.63.47 2.06 1.89-1.22 1.72-3.58-.5-2.06-1.89z" style="fill:#034695"/>
  <path d="M209.01 363.84c1.64-.51 2.18.05 1.64 1.67-1.64.5-2.19-.06-1.64-1.67z" style="fill:#83a3ca"/>
  <path d="M218.3 367.32c.86-1.72 1.5-3.87 3.77-4.04.46 2.7-1.66 3.5-3.77 4.04z" style="fill:#034695"/>
  <path d="M108.75 366.57c1.25-1.14 2.92-1.3 4.53-1.3-1.08 1.51-2.83 1.59-4.53 1.3zM189.99 366.3c2.15-.22 4.29-.45 6.45-.57-2.19 1.24-4.67 3.56-7.24 1.74l.79-1.17zM102.58 367.62a93.6 93.6 0 0 1 4.14-.54c-.92 1.45-2.2 2.51-3.95 2.65l-.19-2.11zM155.76 370.32c2.01-1.7 4.09-4.11 7.04-3.01-1.74 2.14-4.21 3.5-7.04 3.01z" style="fill:#feffff"/>
  <path d="M226.02 369.19c-1.26-1.55 2.35-2.92 2.26-.84l-1.43 1.14z" style="fill:#034695"/>
  <path d="M134.02 370.23c.66-2.93 3.87-2.3 5.45-.63-1.81.25-3.63.46-5.45.63z" style="fill:#83a3ca"/>
  <path d="M181.41 369.83l4.82-.02c-1.02.28-2.04.54-3.04.85a4.62 4.62 0 0 1-2.18 2.01l.4-2.84zM95.55 374.79c-.95-2.76 1.98-3.63 4.11-3.8l-.58 2.03-3.53 1.77z" style="fill:#feffff"/>
  <path d="M144.25 373.39c3.33.28-1.67 2.9 0 0z" style="fill:#83a3ca"/>
  <path d="M210.03 376.01c1.15-1.24 2.39-2.44 4.01-3.06a24.08 24.08 0 0 1-2.97 4.51l-1.04-1.45z" style="fill:#034695"/>
  <path d="M76.8 375.39c1.64-.54 2.19 0 1.65 1.62-1.64.53-2.19-.01-1.65-1.62zM166.88 379.64c1.71-1.81 3.5-3.76 5.99-4.43-1.39 2.13-3.14 4.51-5.99 4.43zM175.08 381.28c.42-.35 1.26-1.05 1.67-1.41l.07 4.41c-3.28.65-6.37 1.89-9.48 3.07.11-3.76 4.31-6.13 7.74-6.07z" style="fill:#feffff"/>
  <path d="M183.41 381.92c1.4.31 2.45 1.08 2.62 2.6l-2.77-.17.15-2.43z" style="fill:#034695"/>
  <path d="M159.3 387.91c-.18-2.35 2.05-3.47 3.56-4.79.11 2.36-1.8 3.65-3.56 4.79zM128.8 384.29l1.92.53c-.23.97-.49 1.94-.82 2.88h-2.72c.53-1.15 1.07-2.28 1.62-3.41zM145.21 391.77c-.55-3.98 4.12-5.2 7.14-5.77a35.48 35.48 0 0 1-7.14 5.77z" style="fill:#feffff"/>
  <path d="M191.21 386.31c.54.49.54.49 0 0z" style="fill:#83a3ca"/>
  <path d="M47.75 388.79l2.09-.15-.38 2.95-1.97-.18.26-2.62zM152.05 390.62c.52 1.05 1.07 2.1 1.55 3.18-2.92 1.21-5.7 2.76-7.93 5.05-1.38 1.76-3.34-.51-4.75-.95 2.67-.75 5.48-1.36 7.31-3.63 1.6-.85 2.82-2.17 3.82-3.65z" style="fill:#feffff"/>
  <path d="M160.2 393.65c3.67-.95-.21 4.83-1 1.39l1-1.39z" style="fill:#034695"/>
  <path d="M165.22 396.31c.6.41.6.41 0 0zM160.08 401.12c3-1.51.11 3.32 0 0z" style="fill:#83a3ca"/>
  <path d="M20.87 406.61a51.23 51.23 0 0 1 3.24-3.02c-.01 1.96-1.02 3.76-3.24 3.02zM127.24 406.91a96.33 96.33 0 0 1 3.27-3.12 8.53 8.53 0 0 1-.23 4.34l-3.04-1.22z" style="fill:#feffff"/>
  <path d="M152.89 404.38l3.04.58c-1.28 1.39-3.02 1.96-4.83 2.23a268 268 0 0 1 1.79-2.81z" style="fill:#034695"/>
  <path d="M140.16 409.52c1.38.16 1.63.83.73 2.03-1.38-.16-1.63-.84-.73-2.03zM116.29 416.14c2.97-1.57.17 3.33 0 0z" style="fill:#83a3ca"/>
  <path d="M124.05 420.43a13.51 13.51 0 0 1 3.96-3l2.06 1.49c-2 .53-4.01 1.03-6.02 1.51z" style="fill:#034695"/>
  <path d="M495.54 1014.97c-20.52-1.04-37.88-4.87-55.57-12.28-15.26-6.38-29.04-15.07-42.28-26.64a194 194 0 0 1-13.61-13.63A155.73 155.73 0 0 1 357.9 921c-6.93-16.2-10.79-32.36-12.2-51.05-.31-4.2-.26-16.66.1-21.1 1.31-16.73 4.63-31.22 10.52-46.08a152.64 152.64 0 0 1 27.64-45.08c2.62-3 10.6-11.03 13.4-13.5 16.73-14.65 34.32-24.79 54.5-31.4a154.77 154.77 0 0 1 147.84 28.34 113.8 113.8 0 0 1 8.76 8c2.87 2.84 3.22 3.27 3.22 4.02 0 .48-6.49 7.14-12.5 12.82a2067.12 2067.12 0 0 0-21.84 21.6l-17.51 17.48-2.52-2.45a84.6 84.6 0 0 0-27.7-18.03 80.37 80.37 0 0 0-39.4-4.86 80.43 80.43 0 0 0-46.36 22.48 78.5 78.5 0 0 0-14.47 18.9c-5.18 9.33-8.38 19.71-9.64 31.28-.33 3.08-.28 13.16.09 16.27 1.77 15.03 7 28.1 16.11 40.24a72.48 72.48 0 0 0 16.01 15.88 80.31 80.31 0 0 0 42.83 15.9c3.37.26 10.86.12 14.13-.24a81.42 81.42 0 0 0 32.35-10.73c7.96-4.63 15.9-11.57 22.45-19.66l1.34-1.65-2.91-.1c-1.6-.06-16.8-.11-33.79-.12l-30.88-.02-.07-16.39c-.04-9-.04-24.64 0-34.74l.07-18.35h78.12c42.97 0 78.12.06 78.12.13s.1.94.24 1.93c.89 6.74 1.16 11.28 1.15 19.45 0 7.4-.1 9.75-.75 15.85a154.4 154.4 0 0 1-29.78 76.38 157.25 157.25 0 0 1-38.33 36.5c-22.61 15.09-47.95 23.67-76.08 25.76-3.18.23-12.26.42-14.62.3zM0 859.02V710.54l69.07.05c50.43.05 69.79.11 71.7.25 9.67.7 14.52 1.34 21.89 2.84a147.2 147.2 0 0 1 49.44 19.85 149.34 149.34 0 0 1 47.24 47.64 149.52 149.52 0 0 1 21.46 91.9 146.22 146.22 0 0 1-14.18 50.92 148.46 148.46 0 0 1-78.9 73.29c-12.7 5.06-24.96 8.08-39.64 9.77l-3.2.37-72.44.04-72.44.05zm156.12 70.96a74.78 74.78 0 0 0 39.72-31.37 74.93 74.93 0 0 0 11.12-41.14 73.97 73.97 0 0 0-7.92-31.64 75.04 75.04 0 0 0-33.23-33c-10.86-5.43-20.12-7.53-35.38-8.02-4.97-.16-52.6-.1-52.76.06-.12.13-.24 148.33-.12 148.66.08.2 4.22.23 27.88.23 16.75.13 35.71 1.09 50.7-3.78zm542.56 75.76c4.37-12.2 70.72-195.08 95.15-262.3l11.96-32.9 35.87.05 35.87.04 8.08 22.25a2959119.1 2959119.1 0 0 1 86.33 237.9 2911.02 2911.02 0 0 1 13.06 36.34v.39h-38.23c-36.27 0-38.24-.02-38.32-.3a4564.67 4564.67 0 0 1-14.74-42.05l-3.83-11.04-48.27.05-48.27.04-1.76 5.09c-.96 2.8-3.72 10.7-6.12 17.57-4.07 11.61-6.8 19.45-9.53 27.4l-1.1 3.24h-76.78zm166.48-121.66c0-.39-9.38-27.45-17.24-49.77l-5.87-16.65c-.13-.39-.3-.65-.38-.57-.44.45-2.73 6.67-7.3 19.85l-8.58 24.63c-7.9 22.62-7.75 22.18-7.75 22.4 0 .14 5.88.19 23.56.19 12.96 0 23.56-.04 23.56-.08z" style="fill:#034695;fill-opacity:1;stroke-width:.16420721"/>
</svg>